<?xml version="1.0" standalone="no"?>
<!DOCTYPE svg PUBLIC "-//W3C//DTD SVG 20010904//EN"
 "http://www.w3.org/TR/2001/REC-SVG-20010904/DTD/svg10.dtd">
<svg version="1.0" xmlns="http://www.w3.org/2000/svg"
 width="500.000000pt" height="500.000000pt" viewBox="0 0 500.000000 500.000000"
 preserveAspectRatio="xMidYMid meet">

<g transform="translate(0.000000,500.000000) scale(0.100000,-0.100000)"
fill="#000000" stroke="none">
<path d="M1735 4979 c-180 -21 -339 -50 -435 -80 -144 -45 -289 -145 -458
-317 -144 -146 -160 -173 -174 -293 -8 -74 -21 -119 -59 -209 -26 -64 -66
-166 -88 -229 -38 -103 -41 -121 -41 -213 0 -62 6 -121 16 -155 12 -40 15 -84
12 -158 -4 -125 -19 -155 -76 -155 -20 1 -53 7 -72 14 -19 7 -44 17 -55 20
-30 11 54 -63 98 -85 34 -18 36 -22 26 -42 -22 -41 -123 -161 -254 -302 -72
-77 -139 -151 -148 -165 -25 -36 -23 -114 4 -141 19 -19 170 -95 313 -158 l49
-21 -6 -53 c-10 -89 -35 -154 -74 -192 -32 -31 -35 -38 -30 -76 3 -22 14 -50
24 -61 28 -31 88 -58 130 -58 61 0 71 -14 29 -39 -52 -33 -86 -77 -86 -115 0
-25 9 -39 44 -68 66 -56 86 -106 86 -214 0 -49 -7 -118 -15 -152 -14 -59 -14
-67 3 -105 24 -55 76 -99 149 -128 48 -19 77 -23 173 -23 98 -1 128 3 205 26
120 37 277 65 405 72 58 4 137 9 177 12 l72 6 69 -94 c255 -346 405 -638 497
-970 l16 -58 349 0 350 0 429 322 430 322 -152 156 c-406 417 -606 752 -607
1015 l0 60 88 62 c48 35 126 99 175 143 48 44 95 80 105 80 32 0 62 -29 62
-60 0 -17 -16 -68 -35 -115 -58 -139 -69 -195 -68 -340 0 -114 4 -139 27 -204
45 -128 91 -197 210 -317 111 -112 180 -163 331 -245 88 -47 87 -43 -6 56 -74
79 -124 158 -150 239 -24 73 -20 90 14 59 76 -69 289 -186 422 -233 109 -38
218 -49 375 -39 143 9 201 28 353 119 20 12 37 24 37 27 0 3 -22 2 -50 -2 -65
-9 -110 7 -153 54 -66 74 -78 127 -87 391 -10 273 -19 319 -105 495 -82 170
-207 304 -348 375 -81 41 -144 46 -247 22 -125 -29 -182 -35 -228 -23 -49 14
-92 61 -92 101 0 16 25 82 56 147 105 224 148 377 164 584 10 134 -1 313 -25
435 -41 199 -138 426 -266 619 -85 129 -289 340 -409 424 -220 155 -517 244
-865 261 -257 13 -433 10 -610 -11z m950 -404 c121 -19 228 -55 348 -117 195
-100 356 -255 470 -453 159 -273 193 -633 91 -942 -106 -318 -378 -597 -694
-712 -156 -56 -209 -64 -405 -65 -157 0 -191 3 -269 23 -440 115 -780 469
-862 898 -23 120 -23 362 -1 462 55 238 163 431 336 599 258 251 626 366 986
307z"/>
<path d="M2566 3817 c-66 -173 -273 -783 -268 -789 4 -3 32 -8 62 -10 l55 -3
28 80 c175 490 256 739 245 747 -7 4 -27 8 -45 8 -17 0 -38 2 -46 5 -9 4 -19
-8 -31 -38z"/>
<path d="M1823 3687 l-282 -152 0 -105 -1 -105 274 -142 c151 -79 279 -143
285 -143 8 0 11 31 9 102 l-3 102 -165 87 c-91 48 -165 93 -165 100 0 6 75 53
167 103 l167 91 1 108 c0 59 -1 107 -2 107 -2 -1 -130 -69 -285 -153z"/>
<path d="M2832 3729 l3 -101 173 -95 c94 -53 172 -99 172 -102 0 -3 -26 -20
-58 -37 -31 -16 -110 -58 -174 -93 l-118 -63 0 -42 c0 -24 3 -70 6 -104 l7
-60 288 146 289 147 0 105 0 106 -82 42 c-46 23 -173 89 -283 147 -110 57
-206 105 -213 105 -10 0 -12 -24 -10 -101z"/>
</g>
</svg>
